<?xml version="1.0" encoding="UTF-8"?>
<!-- Created with Inkscape (http://www.inkscape.org/) -->
<svg id="svg5" width="48" height="48" version="1.1" viewBox="0 0 48 48" xml:space="preserve" xmlns="http://www.w3.org/2000/svg"><g id="layer1"><g id="g5719" transform="matrix(1.1899 0 0 1.1899 .65192 -3.6367)"><path id="path325" d="m18.563 41.527c-2.1711-0.74027-3.3532-3.1139-2.6168-5.2543 0.29192-0.84847 0.8845-1.5862 1.7004-2.117 0.67024-0.436 1.3321-0.62104 2.2214-0.62104 1.2179 0 2.2042 0.39812 3.0286 1.2226 1.8765 1.8765 1.514 4.919-0.75679 6.3525-0.94934 0.59929-2.5094 0.78129-3.5769 0.41729zm-1.4432-10.76c-1.3025-1.1436-3.035-8.0969-3.9269-15.76-0.10492-0.90152-0.13715-1.7869-0.13287-3.65 0.0077-3.3176 0.1918-5.0485 0.63545-5.9723 0.33886-0.70556-0.09364-0.66147 6.2391-0.63603 5.1454 0.020672 5.5929 0.033113 5.8288 0.16207 0.2632 0.14388 0.41893 0.35422 0.41893 0.56584 0 0.066465-0.39536 1.2561-0.87858 2.6436-1.5685 4.5036-2.2667 6.9422-2.8807 10.061-0.52339 2.6583-0.96238 6.1527-1.1613 9.2441-0.22004 3.4193-0.16873 3.0395-0.42741 3.1632-0.29762 0.14239-1.3539 0.29714-2.5146 0.36841l-0.91965 0.05647z" fill="#c14b41" stroke-width=".079348"/></g></g></svg>
