<?xml version="1.0" encoding="UTF-8"?>
<!-- Created with Inkscape (http://www.inkscape.org/) -->
<svg id="svg5" width="48" height="48" version="1.1" viewBox="0 0 48 48" xml:space="preserve" xmlns="http://www.w3.org/2000/svg"><g id="layer1"><g id="g5719" transform="matrix(1.1899 0 0 1.1899 .65192 -3.6367)"><path id="path510" d="m13.464 31.338c3.362-0.06939 9.0541 0.85754 12.311 0 0.44461-2.1141 0.99197-5.2343 2.3178-7.3866 1.4765-2.397 2.8735-4.487 3.0527-7.3866 0.96011-15.538-23.418-15.835-23.071-0.49244 0.12641 5.6014 4.9271 9.6 5.3899 15.266m0 1.9698v2.4622c2.9583-0.37583 12.908-0.5112 12.311-4.432l-12.311 1.9698m0.49244 5.4169c3.8864 0 11.057 1.694 12.311-2.9546-3.142 0.13488-10.422 0.27788-12.311 2.9546z" fill="#ffd87e"/><path id="ellipse356" d="m24.296 39.247c-0.15881 0.04893-0.32296 0.07813-0.49414 0.07813h-8.5781c-0.03101 0-0.06113-0.0042-0.0918-0.0059a5.5929 5.67 0 0 0 4.5488 2.3945 5.5929 5.67 0 0 0 4.6152-2.4668z" fill="#ccd6dd" stroke-linecap="round" stroke-linejoin="round" stroke-width=".24262"/><path id="rect5515" d="m23.735 16.556c-0.30482 0.01549-0.61394 0.14714-0.85938 0.39258l-3.2031 3.2031-3.1191-3.1172c-0.49087-0.49087-1.2441-0.52933-1.6875-0.08594-0.4434 0.4434-0.40493 1.1947 0.08594 1.6855l3.3906 3.3906c0.07216 0.07216 0.14882 0.13304 0.23047 0.18555-0.0014 0.02589-0.0039 0.05182-0.0039 0.07813v9.8262c0 0.69419 0.5038 1.2539 1.1309 1.2539s1.1328-0.55971 1.1328-1.2539v-9.8262c0-0.04888-0.0029-0.09714-0.0078-0.14453 0.09233-0.05612 0.18099-0.12435 0.26172-0.20508l3.3887-3.3887c0.49087-0.49087 0.52933-1.2422 0.08594-1.6855-0.2217-0.2217-0.52136-0.32408-0.82617-0.30859z" fill="#ffcc4d"/><path id="rect564" d="m15.425 31.258h10.635v2.0004l3.33e-4 4.1096c8.9e-5 1.108-0.91783 2-2.0579 2h-8.5772c-1.1401 0-2.0579-0.892-2.0579-2l-2.39e-4 -4.1096c-2e-6 -0.04297 0-2.0004 0-2.0004z" fill="#99aab5" stroke-linecap="round" stroke-linejoin="round" stroke-width=".41177"/><path id="path4200" d="m14.043 36.047 10.952-1.7405c0.95694-0.15208 1.7686 0.09842 1.9063 0.77882 0.1377 0.6804-0.47186 1.3431-1.4288 1.4952l-10.952 1.7405c-0.95694 0.15208-1.7599-0.072-1.8976-0.7524-0.1377-0.6804 0.46316-1.3695 1.4201-1.5216z" fill="#ccd6dd" stroke-linecap="round" stroke-linejoin="round" stroke-width=".42853"/><path id="path4685" d="m13.815 32.235 10.952-1.7405c0.95694-0.15208 1.7686 0.09842 1.9063 0.77882 0.1377 0.6804-0.47186 1.3431-1.4288 1.4952l-10.952 1.7405c-0.95694 0.15208-1.7599-0.072-1.8976-0.7524-0.1377-0.6804 0.46316-1.3695 1.4201-1.5216z" fill="#ccd6dd" stroke-linecap="round" stroke-linejoin="round" stroke-width=".42853"/></g></g></svg>
