<?xml version="1.0" encoding="UTF-8" standalone="no"?>
<!-- Created with Inkscape (http://www.inkscape.org/) -->

<svg
   width="48"
   height="48"
   viewBox="0 0 48 48"
   version="1.1"
   id="svg5"
   xml:space="preserve"
   inkscape:version="1.2.2 (b0a8486541, 2022-12-01)"
   sodipodi:docname="quma.svg"
   xmlns:inkscape="http://www.inkscape.org/namespaces/inkscape"
   xmlns:sodipodi="http://sodipodi.sourceforge.net/DTD/sodipodi-0.dtd"
   xmlns="http://www.w3.org/2000/svg"
   xmlns:svg="http://www.w3.org/2000/svg"><sodipodi:namedview
     id="namedview7"
     pagecolor="#ffffff"
     bordercolor="#000000"
     borderopacity="0.25"
     inkscape:showpageshadow="2"
     inkscape:pageopacity="0.0"
     inkscape:pagecheckerboard="0"
     inkscape:deskcolor="#d1d1d1"
     inkscape:document-units="px"
     showgrid="false"
     inkscape:zoom="11.313709"
     inkscape:cx="2.7400387"
     inkscape:cy="24.306795"
     inkscape:window-width="1920"
     inkscape:window-height="1014"
     inkscape:window-x="0"
     inkscape:window-y="0"
     inkscape:window-maximized="1"
     inkscape:current-layer="g5719" /><defs
     id="defs2" /><g
     inkscape:label="Ebene 1"
     inkscape:groupmode="layer"
     id="layer1"><g
       id="g5719"
       transform="matrix(1.1899285,0,0,1.1899285,0.65192012,-3.6366721)"><path
         style="fill:#62008f;fill-opacity:1;stroke-width:0.0728349"
         d="M 14.144753,41.577284 C 12.59425,41.02867 11.48573,39.559332 11.363372,37.890573 c -0.08226,-1.121844 0.187353,-1.894129 0.925564,-2.651228 1.004238,-1.029936 2.626248,-1.763961 4.1137,-1.861617 1.205093,-0.07912 2.119996,0.235369 2.86776,0.985759 0.786118,0.788878 1.090678,1.844736 0.863996,2.995342 -0.363098,1.843036 -1.856755,3.556389 -3.622503,4.155324 -0.704933,0.23911 -1.788131,0.267999 -2.367136,0.06313 z m -2.314366,-9.762531 c -0.824434,-2.598951 -0.930624,-5.212355 -0.301013,-7.408103 0.393258,-1.371475 1.27139,-2.81442 2.269178,-3.728712 1.073592,-0.983752 1.875719,-1.362514 3.623773,-1.711134 1.407836,-0.28077 2.261731,-0.521243 2.644462,-0.744732 0.45376,-0.264964 1.482725,-1.25733 1.879217,-1.812373 0.663969,-0.929483 0.955259,-1.867448 0.761898,-2.45334 -0.116166,-0.351985 -0.550756,-0.727925 -1.069831,-0.925451 -1.63004,-0.620286 -4.277636,0.505644 -6.837803,2.907876 -0.560829,0.526231 -1.216223,1.089732 -1.456432,1.252222 l -0.436742,0.295437 -0.20202,-0.42524 C 12.231462,16.06428 11.913723,14.62645 11.52466,11.719607 11.382575,10.658037 11.233291,9.6294619 11.192917,9.4338829 c -0.06728,-0.325932 -0.05838,-0.375297 0.106667,-0.591689 0.09904,-0.129849 0.423453,-0.440776 0.720917,-0.69095 2.089728,-1.75751 5.240941,-3.003213 8.486339,-3.354728 1.11643,-0.120923 3.163684,-0.04982 4.109204,0.142705 2.080965,0.423734 3.566548,1.261002 4.658037,2.625252 1.94808,2.434899 2.660286,5.5773791 1.91926,8.4683841 -0.586745,2.289101 -2.297945,4.697187 -4.225835,5.94681 -0.282508,0.183116 -1.382208,0.765076 -2.443777,1.293244 -2.081675,1.035706 -2.982485,1.582399 -3.695462,2.242742 -1.778847,1.647526 -2.404062,3.954811 -1.723671,6.361019 0.04568,0.161554 0.03666,0.163886 -0.635879,0.164471 -0.37522,2.91e-4 -1.419671,0.06536 -2.321003,0.144507 -0.901333,0.07915 -2.197791,0.165738 -2.881018,0.192412 l -1.242232,0.0485 z"
         id="path1928"
         sodipodi:nodetypes="sssssssscsssssssssscsssscccsssssscssc" /><path
         style="fill:#62008f;fill-opacity:1;stroke-width:0.0793485"
         d="m -10.671137,40.600449 c -2.171061,-0.740268 -3.35324,-3.113917 -2.616849,-5.254272 0.291915,-0.848466 0.884495,-1.586211 1.700449,-2.117009 0.670236,-0.436004 1.332097,-0.621036 2.2214391,-0.621036 1.21794,0 2.2042,0.398118 3.028636,1.222555 1.876474,1.876472 1.51401,4.91898 -0.756789,6.352473 -0.94934,0.599292 -2.509351,0.781287 -3.5768861,0.417289 z"
         id="path325"
         sodipodi:nodetypes="sssssss" /></g></g></svg>
