<?xml version="1.0" encoding="UTF-8"?>
<!-- Created with Inkscape (http://www.inkscape.org/) -->
<svg id="svg5" width="48" height="48" version="1.1" viewBox="0 0 48 48" xml:space="preserve" xmlns="http://www.w3.org/2000/svg"><g id="layer1"><g id="g5719" transform="matrix(1.1899 0 0 1.1899 .65192 -3.6367)" fill="#623684"><path id="path337" d="m5.4175 12.305c-0.57458-0.57416-1.2955-1.5798-2.1312-1.7579-0.86349-0.18398-2.2514 1.0938-2.1479 1.971 0.09728 0.82444 1.1773 1.5865 1.7217 2.1312 0.62226 0.62249 1.5744 1.9934 2.5574 1.971 0.76541-0.01747 1.4221-0.84347 1.918-1.3325 1.5239-1.5027 4.2109-3.37 5.1047-5.3271 0.47495-1.0399-0.81039-2.5625-1.908-2.4581-1.0712 0.10195-2.0668 1.5413-2.7705 2.245-0.82135 0.82135-1.6746 1.6067-2.3443 2.5574m0 11.721c-0.57458-0.57416-1.2955-1.5798-2.1312-1.7579-0.86349-0.18396-2.2514 1.0938-2.1479 1.971 0.09728 0.82444 1.1773 1.5865 1.7217 2.1312 0.62258 0.62272 1.579 1.9956 2.5574 1.9956 0.7695 0 1.4259-0.8676 1.918-1.3565 1.5225-1.512 4.2085-3.3654 5.1047-5.3277 0.47495-1.0399-0.81039-2.5625-1.908-2.4581-1.0712 0.10196-2.0668 1.5413-2.7705 2.245-0.82135 0.82135-1.6746 1.6067-2.3443 2.5574m-0.21312 7.9882c-4.6195 0.77318-3.3493 7.6125 1.2787 6.8843 4.3115-0.67835 3.0191-7.6038-1.2787-6.8843"/><path id="path443" d="m29.041 10.871h-6.1034c-2.0698 0-4.9423-0.51849-6.9223 0.09126-1.1697 0.36021-1.1495 2.4703-0.18529 3.0598 1.1087 0.67788 3.5227 0.21631 4.7926 0.21631h11.996c1.1506 0 3.9969 0.51805 4.9242-0.21631 0.67558-0.53514 1.0085-2.7418 0.30578-3.0458-0.79898-0.34566-8.8078-0.10524-8.8078-0.10524z"/><path id="path473" d="m29.041 22.699h-6.1034c-2.0698 0-4.9423-0.51849-6.9223 0.09126-1.1697 0.36021-1.1495 2.4703-0.18529 3.0598 1.1087 0.67788 3.5227 0.21631 4.7926 0.21631h11.996c1.1506 0 3.9969 0.51805 4.9242-0.21631 0.67558-0.53514 1.0085-2.7418 0.30578-3.0458-0.79898-0.34566-8.8078-0.10524-8.8078-0.10524z"/><path id="path475" d="m29.041 34.527h-6.1034c-2.0698 0-4.9423-0.51849-6.9223 0.09126-1.1697 0.36021-1.1495 2.4703-0.18529 3.0598 1.1087 0.67788 3.5227 0.21631 4.7926 0.21631h11.996c1.1506 0 3.9969 0.51805 4.9242-0.21631 0.67558-0.53514 1.0085-2.7418 0.30578-3.0458-0.79898-0.34566-8.8078-0.10524-8.8078-0.10524z"/></g></g></svg>
